<?xml version="1.0" encoding="utf-8"?>
<!-- Generator: Adobe Illustrator 27.0.1, SVG Export Plug-In . SVG Version: 6.00 Build 0)  -->
<svg version="1.1" id="Layer_1" xmlns="http://www.w3.org/2000/svg" xmlns:xlink="http://www.w3.org/1999/xlink" x="0px" y="0px"
	 viewBox="0 0 144 144" style="enable-background:new 0 0 144 144;" xml:space="preserve">
<style type="text/css">
	.st0{fill:#9ACA3C;}
</style>
<g>
	<path class="st0" d="M30.67,30.67l0.94,0.83c-0.04,0.27-0.15,1.38-1.28,2.65c-1.46,1.66-4.06,2.36-6.2,0.47
		c-2.34-2.06-1.65-4.87-0.44-6.24c0.94-1.07,1.92-1.38,2.05-1.43l1.09,0.64c-0.23,0.07-1.11,0.17-1.84,1
		c-0.99,1.12-0.75,2.71,0.79,4.06c1.64,1.45,3.15,1.16,4.13,0.04C30.57,31.96,30.66,30.88,30.67,30.67z"/>
	<path class="st0" d="M36.39,22.65c1.74,2.06,1.37,4.6-0.71,6.36s-4.65,1.69-6.38-0.37c-1.74-2.06-1.37-4.6,0.71-6.36
		S34.66,20.6,36.39,22.65z M33.71,23.79c-1.4-1.66-2.47-1.66-3.27-0.99c-0.8,0.68-0.84,1.89,0.42,3.39l1.09,1.3
		c1.4,1.66,2.49,1.68,3.29,1.01c0.8-0.67,0.96-1.75-0.44-3.41L33.71,23.79z"/>
	<path class="st0" d="M39.01,20.15l2.38-1.52l0.48,0.76l-2.38,1.52l2.21,3.48l-1.98,1.26l-4.57-7.19l0.48-0.3l0,0l3.74-2.38
		l0.8,0.56l-2.55,1.62L39.01,20.15z"/>
	<path class="st0" d="M44.59,16.99l2.53-1.26l0.4,0.81l-2.53,1.26l1.84,3.69l-2.1,1.04l-3.79-7.63l0.5-0.25l0,0l3.97-1.97l0.74,0.64
		l-2.71,1.35L44.59,16.99z"/>
	<path class="st0" d="M55.15,17.1l-0.05,0.98l-5.08,1.87l-2.94-7.99l0.53-0.19v0l4.15-1.53l0.66,0.72l-2.84,1.04l0.9,2.44l2.65-0.98
		l0.31,0.84l-2.65,0.98l1.11,3.02L55.15,17.1z"/>
	<path class="st0" d="M61.37,15.57l-0.16,0.97l-5.26,1.29l-2.03-8.28l0.55-0.13l0,0l4.3-1.05l0.58,0.79l-2.94,0.72l0.62,2.53
		l2.75-0.67l0.21,0.88l-2.74,0.67l0.77,3.13L61.37,15.57z"/>
	<path class="st0" d="M72.91,7.84l-2.67,0.12l0.34,7.61l-2.34,0.11L67.9,8.07l-2.67,0.12l0.34-0.92l6.92-0.31L72.91,7.84z"/>
	<path class="st0" d="M82.34,12.02c-0.25,2.68-2.32,4.2-5.03,3.95c-2.7-0.25-4.46-2.13-4.21-4.81c0.25-2.68,2.32-4.2,5.03-3.95
		C80.83,7.46,82.59,9.34,82.34,12.02z M79.64,10.9c0.2-2.16-0.55-2.92-1.59-3.02c-1.04-0.1-1.94,0.73-2.12,2.68l-0.16,1.69
		c-0.2,2.16,0.54,2.95,1.58,3.05c1.04,0.1,1.92-0.54,2.12-2.7L79.64,10.9z"/>
	<path class="st0" d="M92.23,14.59c-0.7,2.6-3,3.75-5.62,3.04c-2.62-0.7-4.04-2.85-3.34-5.45s3-3.75,5.62-3.04
		C91.51,9.85,92.92,11.99,92.23,14.59z M89.76,13.04c0.56-2.1-0.05-2.97-1.06-3.24c-1.01-0.27-2.03,0.39-2.54,2.28l-0.44,1.64
		c-0.56,2.1,0.04,3,1.05,3.27c1.01,0.27,1.98-0.21,2.54-2.31L89.76,13.04z"/>
	<path class="st0" d="M97.34,20.46l-0.71,0.68l-4.99-2.11l3.32-7.84l2.16,0.91l-2.97,7.01L97.34,20.46z"/>
	<path class="st0" d="M103.59,16.23c-0.39-0.22-0.87-0.23-1.09,0.16c-0.22,0.39,0.02,0.82,0.21,1.11c0.19,0.29,0.48,0.74,1,1.55
		c0.48,0.76,1.1,1.84,0.34,3.18c-0.9,1.58-2.72,1.7-4.4,0.74c-1.55-0.88-2.02-2.43-2.13-2.71l1.07-0.47
		c0.23,0.49,0.7,1.61,1.43,2.03c0.54,0.31,1.24,0.41,1.6-0.23c0.33-0.59-0.16-1.25-0.33-1.51c-0.19-0.29-0.72-1.1-0.97-1.48
		c-0.26-0.39-0.88-1.41-0.16-2.67c0.71-1.26,2.28-1.47,3.78-0.62c1.11,0.63,1.56,1.56,1.72,1.87l-0.93,0.47
		C104.59,17.28,104.2,16.58,103.59,16.23z"/>
	<path class="st0" d="M113.08,30.41l-0.83,0.95c-0.27-0.04-1.38-0.14-2.66-1.26c-1.67-1.45-2.38-4.04-0.51-6.19
		c2.05-2.35,4.85-1.68,6.23-0.48c1.08,0.94,1.39,1.91,1.44,2.04l-0.64,1.1c-0.07-0.22-0.18-1.11-1.01-1.83
		c-1.12-0.98-2.71-0.73-4.05,0.81c-1.44,1.65-1.14,3.15-0.01,4.13C111.79,30.32,112.87,30.41,113.08,30.41z"/>
	<path class="st0" d="M121.13,36.09c-2.04,1.75-4.59,1.4-6.36-0.66c-1.77-2.06-1.72-4.63,0.32-6.38s4.59-1.4,6.36,0.66
		C123.22,31.77,123.17,34.34,121.13,36.09z M119.97,33.41c1.65-1.41,1.64-2.48,0.96-3.27c-0.68-0.79-1.9-0.83-3.38,0.45l-1.29,1.1
		c-1.65,1.41-1.66,2.5-0.98,3.29c0.68,0.79,1.75,0.95,3.4-0.47L119.97,33.41z"/>
	<path class="st0" d="M123.65,38.7l1.53,2.37l-0.76,0.49l-1.53-2.37l-3.46,2.23l-1.27-1.97l7.16-4.61l0.31,0.47l0,0l2.4,3.72
		l-0.55,0.8l-1.64-2.54L123.65,38.7z"/>
	<path class="st0" d="M126.84,44.26l1.27,2.52l-0.8,0.41l-1.27-2.52l-3.68,1.86l-1.06-2.09l7.61-3.84l0.25,0.5l0,0l1.99,3.96
		l-0.63,0.74l-1.36-2.7L126.84,44.26z"/>
	<path class="st0" d="M126.8,54.82l-0.98-0.04l-1.9-5.07l7.98-2.99l0.2,0.53l0,0l1.56,4.15l-0.71,0.67l-1.06-2.83l-2.44,0.91
		l0.99,2.65l-0.84,0.32l-0.99-2.65l-3.02,1.13L126.8,54.82z"/>
	<path class="st0" d="M128.36,61.02l-0.97-0.15l-1.32-5.25l8.26-2.08l0.14,0.55l0,0l1.08,4.29l-0.78,0.58l-0.74-2.93l-2.52,0.63
		l0.69,2.74l-0.87,0.22l-0.69-2.74l-3.12,0.79L128.36,61.02z"/>
	<path class="st0" d="M136.15,72.51l-0.14-2.67l-7.61,0.39l-0.12-2.34l7.6-0.39l-0.14-2.67l0.92,0.34l0.35,6.91L136.15,72.51z"/>
	<path class="st0" d="M132.05,81.96c-2.68-0.23-4.22-2.3-3.98-5.01s2.1-4.48,4.78-4.25c2.68,0.23,4.22,2.3,3.98,5.01
		C136.6,80.42,134.73,82.19,132.05,81.96z M133.15,79.26c2.17,0.19,2.92-0.57,3.01-1.61c0.09-1.04-0.74-1.93-2.69-2.1l-1.69-0.15
		c-2.17-0.19-2.95,0.56-3.04,1.61c-0.09,1.04,0.55,1.92,2.72,2.1L133.15,79.26z"/>
	<path class="st0" d="M129.54,91.88c-2.6-0.68-3.77-2.97-3.08-5.6s2.83-4.06,5.43-3.38c2.6,0.68,3.77,2.97,3.08,5.6
		C134.28,91.13,132.14,92.56,129.54,91.88z M131.08,89.4c2.1,0.55,2.97-0.07,3.24-1.08c0.27-1.01-0.4-2.03-2.3-2.52l-1.64-0.43
		c-2.1-0.55-3,0.06-3.27,1.07s0.22,1.98,2.33,2.53L131.08,89.4z"/>
	<path class="st0" d="M123.69,97.03l-0.68-0.7l2.09-5l7.86,3.28l-0.9,2.16l-7.03-2.93L123.69,97.03z"/>
	<path class="st0" d="M127.97,103.25c0.22-0.4,0.22-0.87-0.16-1.09s-0.82,0.02-1.11,0.21c-0.29,0.2-0.74,0.49-1.54,1.01
		c-0.76,0.49-1.84,1.12-3.18,0.37c-1.59-0.89-1.72-2.71-0.78-4.4c0.87-1.56,2.41-2.03,2.69-2.15l0.48,1.07
		c-0.49,0.23-1.61,0.71-2.02,1.45c-0.3,0.54-0.4,1.24,0.25,1.6c0.59,0.33,1.25-0.17,1.51-0.34c0.29-0.19,1.09-0.72,1.47-0.98
		c0.39-0.26,1.41-0.88,2.67-0.18c1.26,0.71,1.49,2.27,0.65,3.78c-0.62,1.12-1.54,1.57-1.85,1.73l-0.48-0.92
		C126.92,104.26,127.63,103.87,127.97,103.25z"/>
	<path class="st0" d="M113.83,112.83l-0.95-0.82c0.04-0.27,0.14-1.38,1.25-2.67c1.44-1.67,4.03-2.4,6.19-0.54
		c2.37,2.04,1.71,4.85,0.51,6.23c-0.93,1.08-1.9,1.4-2.03,1.45l-1.1-0.63c0.22-0.07,1.11-0.18,1.83-1.02
		c0.97-1.13,0.72-2.72-0.83-4.05c-1.66-1.43-3.16-1.12-4.13,0.01C113.91,111.54,113.83,112.62,113.83,112.83z"/>
	<path class="st0" d="M108.2,120.91c-1.76-2.03-1.42-4.58,0.63-6.36c2.05-1.78,4.62-1.75,6.38,0.29s1.42,4.58-0.63,6.36
		C112.53,122.97,109.96,122.94,108.2,120.91z M110.87,119.74c1.42,1.64,2.49,1.63,3.28,0.94c0.79-0.68,0.81-1.9-0.47-3.38
		l-1.11-1.28c-1.42-1.64-2.5-1.65-3.29-0.96c-0.79,0.68-0.94,1.76,0.48,3.4L110.87,119.74z"/>
	<path class="st0" d="M105.63,123.44l-2.36,1.54l-0.49-0.75l2.36-1.54l-2.25-3.45l1.96-1.28l4.66,7.13l-0.47,0.31l0,0l-3.71,2.42
		l-0.8-0.55l2.53-1.65L105.63,123.44z"/>
	<path class="st0" d="M100.08,126.67l-2.51,1.29l-0.41-0.8l2.51-1.29l-1.88-3.67l2.08-1.07l3.89,7.58l-0.5,0.26l0,0l-3.94,2.02
		l-0.74-0.63l2.69-1.38L100.08,126.67z"/>
	<path class="st0" d="M89.51,126.69l0.04-0.98l5.06-1.93l3.04,7.96l-0.53,0.2l0,0l-4.14,1.58l-0.67-0.71l2.83-1.08l-0.93-2.43
		l-2.64,1.01l-0.32-0.84l2.64-1.01l-1.15-3.01L89.51,126.69z"/>
	<path class="st0" d="M83.31,128.3l0.15-0.97l5.24-1.35l2.13,8.25l-0.55,0.14l0,0L86,135.48l-0.59-0.78l2.93-0.76l-0.65-2.52
		l-2.73,0.71l-0.23-0.87l2.73-0.71l-0.81-3.12L83.31,128.3z"/>
	<path class="st0" d="M71.87,136.16l2.67-0.15l-0.44-7.6l2.34-0.13l0.44,7.6l2.67-0.15l-0.33,0.92l-6.91,0.4L71.87,136.16z"/>
	<path class="st0" d="M62.4,132.09c0.22-2.68,2.28-4.23,4.98-4.01s4.49,2.08,4.27,4.76s-2.28,4.23-4.98,4.01
		S62.18,134.78,62.4,132.09z M65.11,133.18c-0.18,2.16,0.58,2.92,1.62,3c1.04,0.08,1.93-0.75,2.09-2.7l0.14-1.69
		c0.18-2.17-0.58-2.95-1.62-3.03c-1.04-0.08-1.91,0.56-2.09,2.73L65.11,133.18z"/>
	<path class="st0" d="M52.48,129.66c0.66-2.61,2.95-3.79,5.58-3.12c2.63,0.67,4.08,2.8,3.41,5.41c-0.66,2.61-2.95,3.79-5.58,3.12
		C53.26,134.4,51.82,132.27,52.48,129.66z M54.97,131.18c-0.54,2.1,0.08,2.97,1.1,3.23c1.01,0.26,2.03-0.42,2.51-2.31l0.42-1.64
		c0.53-2.1-0.08-3-1.09-3.26c-1.01-0.26-1.98,0.24-2.51,2.34L54.97,131.18z"/>
	<path class="st0" d="M47.29,123.84l0.7-0.69l5.01,2.05l-3.23,7.89l-2.17-0.89l2.89-7.05L47.29,123.84z"/>
	<path class="st0" d="M41.09,128.16c0.4,0.22,0.87,0.22,1.09-0.17c0.21-0.39-0.03-0.82-0.22-1.11c-0.2-0.29-0.49-0.73-1.02-1.54
		c-0.49-0.75-1.12-1.83-0.38-3.17c0.88-1.6,2.7-1.74,4.39-0.8c1.56,0.86,2.05,2.4,2.16,2.68l-1.07,0.48
		c-0.24-0.49-0.72-1.6-1.46-2.01c-0.54-0.3-1.24-0.39-1.6,0.25c-0.33,0.59,0.17,1.25,0.34,1.5c0.19,0.29,0.73,1.09,0.98,1.47
		c0.26,0.39,0.89,1.4,0.19,2.67c-0.7,1.27-2.26,1.5-3.77,0.67c-1.12-0.62-1.58-1.54-1.74-1.84l0.92-0.48
		C40.07,127.11,40.47,127.81,41.09,128.16z"/>
	<path class="st0" d="M31.42,114.07l0.82-0.96c0.27,0.04,1.38,0.13,2.67,1.23c1.68,1.43,2.43,4.01,0.58,6.19
		c-2.02,2.38-4.83,1.74-6.23,0.55c-1.09-0.92-1.42-1.89-1.46-2.02l0.62-1.11c0.07,0.22,0.19,1.11,1.03,1.82
		c1.14,0.97,2.72,0.7,4.04-0.86c1.42-1.67,1.1-3.17-0.04-4.13C32.71,114.15,31.63,114.08,31.42,114.07z"/>
	<path class="st0" d="M23.3,108.5c2.02-1.77,4.57-1.45,6.37,0.59c1.79,2.04,1.77,4.61-0.25,6.39c-2.02,1.77-4.57,1.45-6.36-0.59
		C21.27,112.84,21.28,110.27,23.3,108.5z M24.49,111.16c-1.63,1.43-1.61,2.5-0.92,3.28s1.91,0.8,3.38-0.49l1.28-1.12
		c1.63-1.43,1.63-2.52,0.94-3.3c-0.69-0.79-1.76-0.93-3.4,0.51L24.49,111.16z"/>
	<path class="st0" d="M20.76,105.94l-1.56-2.36l0.75-0.5l1.56,2.36l3.44-2.27l1.29,1.95l-7.11,4.7l-0.31-0.47l0,0l-2.44-3.7
		l0.54-0.81l1.67,2.52L20.76,105.94z"/>
	<path class="st0" d="M17.5,100.41l-1.3-2.5l0.8-0.42l1.3,2.5l3.66-1.9l1.08,2.08l-7.55,3.93l-0.26-0.5l0,0l-2.04-3.93l0.63-0.75
		l1.4,2.68L17.5,100.41z"/>
	<path class="st0" d="M17.41,89.85l0.98,0.03l1.96,5.05l-7.94,3.09l-0.21-0.53l0,0l-1.61-4.13l0.7-0.67l1.1,2.82l2.42-0.94
		l-1.03-2.63l0.84-0.33l1.02,2.63l3-1.17L17.41,89.85z"/>
	<path class="st0" d="M15.77,83.65l0.97,0.14l1.38,5.24l-8.24,2.17l-0.14-0.55l0,0l-1.13-4.28l0.78-0.59l0.77,2.92l2.51-0.66
		l-0.72-2.73l0.87-0.23l0.72,2.73L16.66,87L15.77,83.65z"/>
	<path class="st0" d="M7.84,72.28l0.17,2.67l7.6-0.49l0.15,2.34l-7.61,0.49l0.17,2.67L7.4,79.62l-0.44-6.91L7.84,72.28z"/>
	<path class="st0" d="M11.85,62.76c2.68,0.2,4.24,2.25,4.04,4.96c-0.2,2.71-2.05,4.5-4.73,4.3c-2.68-0.2-4.24-2.25-4.04-4.96
		C7.32,64.35,9.17,62.56,11.85,62.76z M10.78,65.48c-2.17-0.16-2.91,0.6-2.99,1.64c-0.08,1.04,0.76,1.92,2.71,2.07l1.69,0.13
		c2.17,0.16,2.94-0.6,3.02-1.64c0.08-1.04-0.57-1.91-2.74-2.07L10.78,65.48z"/>
	<path class="st0" d="M14.23,52.83c2.61,0.65,3.8,2.93,3.15,5.57c-0.66,2.64-2.78,4.09-5.39,3.44c-2.61-0.65-3.8-2.93-3.15-5.57
		C9.5,53.64,11.62,52.19,14.23,52.83z M12.72,55.33c-2.11-0.52-2.97,0.1-3.23,1.11c-0.25,1.02,0.43,2.02,2.33,2.5l1.65,0.41
		c2.11,0.52,3-0.09,3.25-1.11c0.25-1.01-0.25-1.98-2.36-2.5L12.72,55.33z"/>
	<path class="st0" d="M20,47.6l0.69,0.69l-2.02,5.03l-7.91-3.18l0.87-2.17l7.07,2.84L20,47.6z"/>
	<path class="st0" d="M15.66,41.43c-0.22,0.4-0.21,0.87,0.18,1.09c0.39,0.21,0.82-0.03,1.1-0.23c0.29-0.2,0.73-0.49,1.53-1.02
		c0.75-0.5,1.82-1.14,3.17-0.4c1.6,0.87,1.75,2.69,0.82,4.39c-0.85,1.56-2.39,2.06-2.66,2.18l-0.49-1.07c0.49-0.24,1.6-0.73,2-1.47
		c0.29-0.54,0.39-1.24-0.26-1.6c-0.59-0.32-1.25,0.18-1.5,0.35c-0.29,0.2-1.08,0.74-1.46,0.99c-0.39,0.26-1.4,0.9-2.67,0.21
		c-1.27-0.69-1.52-2.26-0.69-3.77c0.61-1.12,1.53-1.59,1.83-1.75l0.49,0.92C16.7,40.41,16,40.81,15.66,41.43z"/>
</g>
</svg>
