<?xml version="1.0" encoding="utf-8"?>
<!-- Generator: Adobe Illustrator 27.0.1, SVG Export Plug-In . SVG Version: 6.00 Build 0)  -->
<svg version="1.1" id="Layer_1" xmlns="http://www.w3.org/2000/svg" xmlns:xlink="http://www.w3.org/1999/xlink" x="0px" y="0px"
	 viewBox="0 0 144 144" style="enable-background:new 0 0 144 144;" xml:space="preserve">
<style type="text/css">
	.st0{fill:#9ACA3C;}
</style>
<g>
	<path class="st0" d="M120.52,72c0-0.07-0.01-0.14-0.01-0.22c0-0.08,0-0.16,0-0.24h0c-0.02-2.3-0.2-4.56-0.53-6.78l0,0
		c0-0.03-0.01-0.06-0.02-0.1c-0.05-0.31-0.1-0.61-0.15-0.92c-0.07-0.41-0.14-0.81-0.22-1.21c-0.07-0.33-0.13-0.66-0.2-0.98
		c-0.11-0.51-0.23-1.01-0.36-1.51c-0.11-0.44-0.23-0.87-0.35-1.31c-0.06-0.2-0.11-0.4-0.17-0.6l-0.01,0
		c-0.65-2.19-1.45-4.31-2.39-6.36l0.01,0c-0.04-0.08-0.09-0.16-0.12-0.25c-0.41-0.88-0.84-1.74-1.3-2.59c-0.05-0.1-0.1-0.2-0.16-0.3
		c-0.52-0.94-1.06-1.86-1.64-2.76c-0.02-0.02-0.03-0.05-0.04-0.07l0,0c-1.81-2.81-3.9-5.43-6.24-7.8c-0.12-0.12-0.24-0.24-0.36-0.36
		c-0.25-0.25-0.5-0.51-0.75-0.76c-0.02-0.02-0.05-0.04-0.07-0.06c-0.41-0.39-0.84-0.76-1.27-1.14c-0.07-0.06-0.13-0.13-0.21-0.19
		l0,0c-1.72-1.5-3.54-2.88-5.46-4.13l0.01-0.01c-0.1-0.06-0.2-0.12-0.29-0.18c-0.27-0.17-0.53-0.36-0.81-0.53
		c-0.21-0.13-0.43-0.26-0.64-0.39c-0.34-0.2-0.69-0.4-1.04-0.59c-0.08-0.05-0.16-0.09-0.25-0.14c-0.93-0.51-1.88-1-2.84-1.45
		c-0.04-0.02-0.08-0.04-0.12-0.06l0,0c-2.48-1.16-5.07-2.11-7.76-2.84c-0.15-0.04-0.3-0.08-0.45-0.12c-0.41-0.11-0.82-0.21-1.23-0.3
		c-0.2-0.05-0.41-0.09-0.61-0.14c-0.22-0.05-0.44-0.1-0.66-0.15c-0.14-0.03-0.29-0.05-0.43-0.08c-0.45-0.09-0.91-0.17-1.36-0.24
		c-0.2-0.03-0.4-0.08-0.6-0.11c-1.2-0.18-2.42-0.32-3.66-0.42c-1.23-0.09-2.48-0.14-3.73-0.14c-0.22,0-0.45,0.01-0.67,0.01
		c-0.07,0-0.14,0-0.2,0c-0.25,0-0.5,0.01-0.75,0.02c-0.02,0-0.04,0-0.06,0c-0.87,0.03-1.74,0.09-2.61,0.16
		c-0.39,0.03-0.77,0.08-1.16,0.13c-0.34,0.04-0.68,0.07-1.01,0.11l0,0.01c-0.31,0.04-0.63,0.07-0.93,0.11
		c-0.8,0.12-1.6,0.27-2.39,0.43c-1.17,0.24-2.32,0.53-3.46,0.86l0-0.01c-0.24,0.07-0.47,0.14-0.71,0.21
		c-0.06,0.02-0.11,0.03-0.17,0.05c0,0,0,0,0,0c-0.24,0.07-0.48,0.15-0.71,0.22c0,0,0,0,0,0c-0.06,0.02-0.13,0.04-0.19,0.06
		c-0.79,0.26-1.56,0.53-2.33,0.83c0,0,0,0,0,0c0,0,0,0,0,0c0,0,0,0-0.01,0c0,0,0,0,0,0c0,0,0,0,0,0c-0.51,0.2-1.02,0.4-1.52,0.61
		c-0.15,0.06-0.28,0.14-0.43,0.2c-0.14,0.06-0.29,0.12-0.43,0.18l0.01,0.02c-1.72,0.77-3.4,1.62-5.01,2.57
		c-0.26,0.16-0.53,0.32-0.79,0.48c-0.11,0.07-0.21,0.14-0.32,0.21l-0.01-0.01c-0.21,0.13-0.4,0.28-0.61,0.42
		c-0.65,0.43-1.3,0.86-1.93,1.32c-0.32,0.23-0.63,0.47-0.95,0.71c-0.34,0.26-0.68,0.5-1.01,0.76c-0.33,0.27-0.66,0.54-0.98,0.81
		c-0.02,0.01-0.03,0.03-0.05,0.05c-0.01,0.01-0.03,0.02-0.04,0.03l0,0c-0.68,0.58-1.34,1.16-1.98,1.78c-0.3,0.29-0.6,0.57-0.89,0.87
		c-0.58,0.58-1.14,1.17-1.69,1.78c-0.13,0.14-0.25,0.28-0.37,0.42c0,0.01-0.01,0.01-0.01,0.02c-0.13,0.15-0.26,0.3-0.39,0.45
		c-0.05,0.06-0.11,0.12-0.16,0.18c0,0.01-0.01,0.01-0.01,0.02c-0.03,0.03-0.05,0.06-0.08,0.1c-0.51,0.61-1.01,1.22-1.49,1.85
		c0,0,0,0,0,0c-0.03,0.03-0.05,0.07-0.08,0.1c-0.08,0.11-0.16,0.21-0.24,0.32c-0.08,0.11-0.16,0.21-0.24,0.32c0,0,0,0,0,0
		c-0.01,0.01-0.02,0.02-0.02,0.03c0,0,0,0,0,0c-0.06,0.08-0.11,0.15-0.17,0.23c-0.25,0.35-0.51,0.7-0.75,1.06
		c-0.17,0.24-0.33,0.49-0.49,0.73c0,0,0,0,0,0c-0.02,0.03-0.04,0.06-0.06,0.09c-0.1,0.15-0.2,0.3-0.3,0.45
		c-0.42,0.66-0.83,1.32-1.22,2c-0.29,0.5-0.56,1-0.83,1.51c-0.36,0.68-0.7,1.37-1.03,2.07c-0.03,0.06-0.05,0.11-0.08,0.17
		c0,0,0,0,0,0c-0.14,0.3-0.27,0.6-0.41,0.9c-0.15,0.35-0.3,0.69-0.44,1.05c0,0,0,0,0,0c-0.05,0.13-0.1,0.25-0.15,0.38
		c-0.04,0.09-0.08,0.19-0.11,0.28c-0.03,0.09-0.07,0.18-0.1,0.27c-0.05,0.13-0.1,0.26-0.15,0.4c-0.01,0.01-0.01,0.03-0.02,0.04
		c0,0,0,0,0,0c-0.08,0.22-0.17,0.45-0.25,0.67c0,0,0,0,0,0c-0.04,0.1-0.07,0.2-0.1,0.3c-0.05,0.13-0.09,0.26-0.14,0.4
		c-0.05,0.16-0.11,0.32-0.16,0.48c-0.06,0.18-0.12,0.36-0.17,0.53c-0.03,0.1-0.07,0.21-0.1,0.31c-0.02,0.05-0.03,0.1-0.05,0.16
		c-0.01,0.04-0.02,0.08-0.04,0.13c-0.66,2.19-1.18,4.44-1.53,6.75c-0.18,1.18-0.32,2.37-0.41,3.57c0,0.06-0.01,0.12-0.01,0.18
		c-0.01,0.15-0.02,0.29-0.03,0.44c-0.01,0.16-0.02,0.32-0.03,0.48c-0.01,0.11-0.01,0.22-0.02,0.32c-0.02,0.35-0.03,0.7-0.04,1.04
		c0,0.11,0,0.22-0.01,0.33c0,0.18-0.01,0.36-0.01,0.54c0,0.15-0.01,0.3-0.01,0.45c0,2.18,0.15,4.33,0.43,6.44
		c0.09,0.7,0.2,1.4,0.32,2.09c0,0,0,0,0,0c0,0.02,0.01,0.04,0.01,0.06c0,0.02,0.01,0.04,0.01,0.05c0.21,1.18,0.46,2.34,0.76,3.48
		c0.1,0.38,0.2,0.76,0.31,1.14c0.11,0.39,0.23,0.78,0.35,1.16c0.35,1.14,0.75,2.26,1.18,3.36c0.27,0.69,0.56,1.37,0.86,2.04
		c0.02,0.05,0.04,0.09,0.06,0.14c0.32,0.72,0.66,1.42,1.02,2.12c0.36,0.7,0.73,1.38,1.12,2.06c0.36,0.62,0.73,1.23,1.11,1.83
		c0.04,0.06,0.07,0.11,0.11,0.17c0.42,0.66,0.86,1.3,1.31,1.94c0.86,1.21,1.78,2.38,2.75,3.51c0.04,0.05,0.09,0.11,0.13,0.16
		c0.76,0.88,1.56,1.73,2.38,2.56c0.53,0.53,1.07,1.05,1.63,1.55c0.05,0.05,0.1,0.09,0.16,0.14c0.21,0.19,0.42,0.38,0.64,0.56
		c0.34,0.3,0.68,0.59,1.03,0.87c0.37,0.3,0.74,0.6,1.12,0.9c1.05,0.82,2.14,1.59,3.25,2.32c0.07,0.05,0.14,0.09,0.21,0.14
		c0.16,0.11,0.33,0.21,0.5,0.31c1.36,0.85,2.77,1.64,4.21,2.36c0.36,0.18,0.73,0.36,1.1,0.53c0.12,0.06,0.25,0.12,0.37,0.17
		c0.4,0.18,0.8,0.36,1.21,0.53c0.59,0.25,1.18,0.48,1.78,0.71c1.19,0.45,2.39,0.85,3.62,1.2c0.07,0.02,0.13,0.04,0.2,0.06
		c0,0,0,0,0,0c0,0,0.01,0,0.01,0c0,0,0,0,0,0c0.1,0.03,0.2,0.05,0.3,0.08c0.26,0.07,0.52,0.14,0.78,0.21c0.01,0,0.01,0,0.02,0
		c0.03,0.01,0.06,0.02,0.09,0.02c0.28,0.07,0.56,0.14,0.84,0.2c0.17,0.04,0.33,0.08,0.5,0.12c0.29,0.07,0.59,0.13,0.88,0.19
		c0.07,0.02,0.15,0.03,0.22,0.04c0.29,0.06,0.57,0.11,0.86,0.16c0.01,0,0.02,0,0.03,0c0,0,0,0,0,0c0.04,0.01,0.09,0.02,0.13,0.02
		c0.04,0.01,0.09,0.02,0.13,0.02c0.36,0.06,0.71,0.12,1.07,0.18c0.01,0,0.02,0,0.04,0.01c0.05,0.01,0.1,0.01,0.15,0.02
		c0.22,0.03,0.43,0.06,0.65,0.09c2.15,0.29,4.35,0.45,6.59,0.45c0.15,0,0.3,0,0.45-0.01c0.18,0,0.35,0,0.53-0.01
		c0.12,0,0.23,0,0.35-0.01c0.35-0.01,0.69-0.02,1.04-0.04c0.12-0.01,0.23-0.01,0.35-0.02c0.28-0.02,0.56-0.03,0.84-0.05
		c0.06,0,0.12-0.01,0.18-0.01c0.03,0,0.06-0.01,0.09-0.01c0.77-0.06,1.54-0.14,2.3-0.23c0.02,0,0.04,0,0.05-0.01
		c0.02,0,0.04,0,0.05-0.01c0,0,0,0,0,0c0.39-0.05,0.77-0.1,1.16-0.16c0.03,0,0.05-0.01,0.08-0.01c0.44-0.07,0.88-0.14,1.32-0.22
		c0.66-0.12,1.32-0.25,1.97-0.4c0.17-0.04,0.33-0.08,0.5-0.12c0.58-0.14,1.16-0.29,1.73-0.44c0.45-0.12,0.9-0.25,1.34-0.39
		c0.03-0.01,0.07-0.02,0.1-0.03c0.02-0.01,0.04-0.01,0.06-0.02c0.01,0,0.02-0.01,0.03-0.01c0,0,0,0,0,0c0.32-0.1,0.63-0.2,0.95-0.31
		c0,0,0,0,0,0c0.08-0.03,0.16-0.06,0.25-0.08c0,0,0,0,0,0c0.29-0.1,0.58-0.2,0.86-0.3c0.05-0.02,0.1-0.04,0.16-0.06
		c0.01,0,0.01,0,0.02-0.01c0,0,0,0,0,0c0.13-0.05,0.25-0.1,0.38-0.14c0.21-0.08,0.41-0.15,0.62-0.23c0.04-0.02,0.09-0.04,0.13-0.05
		c0.05-0.02,0.09-0.04,0.14-0.05c0.15-0.06,0.3-0.12,0.45-0.18c0.09-0.04,0.17-0.07,0.26-0.1c0,0,0,0,0,0
		c0.12-0.05,0.24-0.1,0.36-0.15c0,0,0,0,0,0c0.22-0.1,0.45-0.19,0.67-0.29c0,0,0,0,0,0c0.1-0.05,0.21-0.09,0.31-0.14c0,0,0,0,0,0
		c0.15-0.07,0.29-0.14,0.43-0.2c0.12-0.06,0.25-0.11,0.37-0.17c0.24-0.12,0.49-0.24,0.73-0.36c1.85-0.92,3.63-1.95,5.34-3.09
		c0.01-0.01,0.03-0.02,0.04-0.03c0,0,0,0,0,0c0.09-0.06,0.18-0.12,0.27-0.19c0.08-0.05,0.16-0.11,0.23-0.16
		c0.11-0.07,0.22-0.15,0.32-0.22c0.17-0.12,0.34-0.24,0.51-0.36c0.09-0.06,0.17-0.12,0.26-0.19c0.35-0.25,0.69-0.51,1.03-0.77
		c0.06-0.04,0.11-0.09,0.17-0.13c0.01,0,0.01-0.01,0.02-0.01c0.1-0.08,0.2-0.15,0.3-0.23c0.08-0.06,0.16-0.13,0.24-0.19c0,0,0,0,0,0
		c0.08-0.06,0.15-0.12,0.23-0.19c0,0,0,0,0,0c0.09-0.07,0.18-0.15,0.27-0.22c0.09-0.07,0.18-0.15,0.27-0.22c0,0,0,0,0,0c0,0,0,0,0,0
		c0.03-0.03,0.06-0.05,0.09-0.08c0,0,0,0,0,0c0,0,0,0,0,0c0.4-0.33,0.79-0.67,1.17-1.02c0.02-0.02,0.04-0.04,0.06-0.05
		c0.04-0.04,0.09-0.08,0.13-0.12c0.05-0.05,0.1-0.09,0.16-0.14c1.58-1.44,3.04-3,4.42-4.64c0.03-0.03,0.06-0.06,0.08-0.1l0.02,0.02
		c0.18-0.22,0.37-0.44,0.55-0.66c0,0,0,0,0,0c0,0,0,0,0,0c0,0,0,0,0,0c0,0,0,0,0,0c0.57-0.71,1.12-1.44,1.65-2.17
		c0.09-0.13,0.19-0.26,0.28-0.39c0.51-0.72,1-1.46,1.47-2.21c0.03-0.05,0.06-0.09,0.09-0.14l-0.01,0c1.2-1.94,2.28-3.97,3.2-6.07
		l0,0c0.08-0.17,0.14-0.35,0.22-0.52c0.27-0.63,0.52-1.27,0.76-1.91c0.1-0.26,0.2-0.52,0.29-0.79c0.1-0.27,0.19-0.55,0.28-0.83
		c0.1-0.29,0.2-0.58,0.29-0.88c0.09-0.27,0.17-0.55,0.25-0.83c0.07-0.23,0.14-0.46,0.21-0.69l-0.01,0c0.49-1.76,0.88-3.55,1.17-5.38
		c0.03-0.2,0.07-0.4,0.1-0.6c0.03-0.2,0.05-0.4,0.08-0.6c0-0.03,0.01-0.07,0.01-0.1l0.01,0c0.01-0.1,0.02-0.21,0.03-0.31
		c0.04-0.3,0.08-0.59,0.11-0.89c0.07-0.64,0.12-1.28,0.16-1.92c0,0,0,0,0,0c0-0.03,0-0.05,0.01-0.08c0,0,0,0,0,0
		c0.02-0.3,0.03-0.6,0.04-0.9c0.01-0.2,0.02-0.39,0.03-0.59c0,0,0,0,0,0c0,0,0,0,0,0c0-0.02,0-0.05,0-0.07
		c0-0.12,0.01-0.25,0.01-0.37c0-0.12,0.01-0.24,0.01-0.36c0,0,0,0,0,0c0-0.08,0-0.15,0-0.23C120.51,72.43,120.52,72.21,120.52,72z
		 M106.43,100.75L94.9,90.84c-0.9,1.09-1.87,2.11-2.92,3.07l10.01,11.45c-1.6,1.44-3.29,2.76-5.07,3.95l-8.27-12.77
		c-1.18,0.8-2.41,1.52-3.7,2.14l6.36,13.82c-0.61,0.29-1.22,0.57-1.84,0.83c-1.38,0.58-2.77,1.09-4.19,1.53l-4.32-14.58
		c-1.36,0.43-2.76,0.77-4.2,1l2.18,15.04c-2.13,0.33-4.3,0.51-6.49,0.53v-15.19c-0.15,0-0.3,0.01-0.45,0.01
		c-1.32,0-2.61-0.09-3.88-0.25l-2.18,15.04c-2.16-0.29-4.29-0.74-6.39-1.34l4.32-14.58c-1.4-0.4-2.76-0.9-4.08-1.5l-6.36,13.81
		c-1.99-0.9-3.9-1.95-5.72-3.12l8.27-12.77c-1.22-0.78-2.37-1.65-3.46-2.6l-10,11.45c-0.77-0.67-1.51-1.37-2.24-2.09
		c-0.81-0.81-1.59-1.65-2.33-2.51l11.53-9.92c-0.93-1.09-1.79-2.25-2.56-3.46L34.1,96.01c-1.15-1.82-2.17-3.72-3.06-5.7l13.85-6.28
		c-0.58-1.3-1.07-2.65-1.46-4.04l-14.6,4.25c-0.59-2.07-1.02-4.18-1.3-6.31l15.05-2.13c-0.16-1.25-0.24-2.51-0.24-3.8
		c0-0.15,0-0.3,0.01-0.45H27.15c0.02-2.16,0.19-4.29,0.51-6.39l15.05,2.15c0.23-1.41,0.55-2.8,0.97-4.14l-14.6-4.25
		c0.45-1.48,0.98-2.94,1.59-4.37c0.23-0.54,0.47-1.07,0.72-1.6l13.85,6.27c0.61-1.28,1.32-2.51,2.1-3.68l-12.83-8.18
		c1.17-1.78,2.47-3.47,3.89-5.08l11.53,9.91c0.94-1.05,1.96-2.03,3.04-2.94L42.97,37.8c1.63-1.39,3.35-2.65,5.16-3.79l8.27,12.77
		c1.19-0.74,2.44-1.4,3.74-1.97L53.78,31c0.25-0.11,0.5-0.22,0.76-0.33c1.72-0.73,3.48-1.34,5.26-1.85l4.32,14.58
		c1.34-0.37,2.72-0.65,4.13-0.83l-2.18-15.04c1.95-0.26,3.93-0.39,5.93-0.39c0.15,0,0.3,0,0.45,0.01v15.19
		c1.42,0.02,2.82,0.14,4.18,0.36l2.18-15.04c2.1,0.32,4.18,0.79,6.21,1.41l-4.32,14.58c1.34,0.41,2.64,0.92,3.89,1.51l6.36-13.81
		c1.92,0.9,3.77,1.93,5.54,3.08l-8.27,12.77c1.16,0.76,2.26,1.6,3.3,2.51l10-11.45c0.75,0.65,1.47,1.33,2.18,2.04
		c0.79,0.79,1.54,1.6,2.27,2.44l-11.53,9.91c0.9,1.04,1.73,2.15,2.48,3.31l12.83-8.18c1.13,1.76,2.14,3.6,3.02,5.52l-13.85,6.27
		c0.58,1.24,1.07,2.53,1.47,3.85l14.6-4.25c0.6,2.01,1.06,4.05,1.37,6.13l-15.05,2.15c0.21,1.34,0.33,2.72,0.35,4.12h15.19
		c0,0.15,0.01,0.3,0.01,0.45c0,1.96-0.13,3.91-0.37,5.83l-15.05-2.15c-0.17,1.39-0.44,2.75-0.8,4.07l14.6,4.25
		c-0.51,1.85-1.15,3.67-1.9,5.45c-0.07,0.17-0.15,0.34-0.22,0.51l-13.85-6.27c-0.56,1.29-1.2,2.53-1.92,3.72l12.83,8.18
		C109.05,97.39,107.8,99.12,106.43,100.75z"/>
	<path class="st0" d="M99.87,79.53c0.35-1.29,0.61-2.61,0.78-3.96c0.14-1.17,0.22-2.36,0.22-3.57c0-0.15,0-0.3-0.01-0.45
		c-0.02-1.36-0.14-2.7-0.34-4c-0.21-1.34-0.51-2.64-0.89-3.91c-0.39-1.29-0.87-2.54-1.43-3.75c-0.57-1.22-1.21-2.39-1.94-3.51
		c-0.73-1.13-1.53-2.2-2.41-3.22c-0.88-1.02-1.83-1.97-2.84-2.86c-1.01-0.89-2.08-1.7-3.21-2.44c-1.13-0.74-2.3-1.4-3.53-1.98
		c-1.22-0.57-2.48-1.07-3.78-1.47c-1.29-0.4-2.61-0.7-3.97-0.92c-1.33-0.21-2.69-0.33-4.07-0.35c-0.15,0-0.3-0.01-0.45-0.01
		c-1.23,0-2.45,0.08-3.64,0.23c-1.37,0.17-2.71,0.44-4.02,0.8c-1.33,0.37-2.62,0.83-3.87,1.37c-1.26,0.55-2.48,1.19-3.64,1.91
		c-1.17,0.72-2.28,1.53-3.33,2.41c-1.05,0.88-2.04,1.84-2.96,2.86c-0.92,1.02-1.76,2.11-2.53,3.25c-0.76,1.14-1.45,2.34-2.05,3.58
		c-0.59,1.23-1.1,2.52-1.52,3.84c-0.41,1.31-0.73,2.65-0.95,4.03c-0.22,1.35-0.34,2.73-0.36,4.13c0,0.15-0.01,0.3-0.01,0.45
		c0,1.25,0.08,2.48,0.23,3.69c0.18,1.39,0.46,2.76,0.83,4.08c0.38,1.35,0.85,2.67,1.42,3.93c0.57,1.28,1.23,2.52,1.98,3.69
		c0.75,1.19,1.58,2.31,2.49,3.37c0.91,1.07,1.9,2.06,2.96,2.99c1.06,0.92,2.18,1.77,3.37,2.53c1.18,0.76,2.42,1.44,3.71,2.02
		c1.28,0.58,2.6,1.07,3.97,1.46c1.34,0.38,2.72,0.67,4.14,0.85c1.23,0.16,2.49,0.25,3.77,0.25c0.15,0,0.3,0,0.45-0.01
		c1.43-0.02,2.83-0.15,4.2-0.37c1.4-0.23,2.76-0.55,4.08-0.97c1.34-0.43,2.64-0.95,3.88-1.55c1.25-0.61,2.46-1.31,3.6-2.09
		c1.14-0.78,2.23-1.64,3.25-2.57c1.01-0.93,1.96-1.92,2.84-2.99c0.87-1.05,1.66-2.17,2.37-3.34c0.7-1.16,1.33-2.37,1.87-3.62
		C99.06,82.13,99.51,80.85,99.87,79.53z M81.96,57.61c0.67,0,1.3,0.34,1.84,0.94c0.49,0.55,0.9,1.31,1.2,2.21
		c0.24,0.74,0.41,1.58,0.48,2.48c0.02,0.29,0.03,0.59,0.03,0.89c0,0.53-0.04,1.05-0.1,1.54c-0.11,0.83-0.3,1.59-0.57,2.26
		c-0.33,0.85-0.78,1.55-1.29,2.03c-0.48,0.44-1.02,0.69-1.59,0.69c-0.38,0-0.74-0.11-1.08-0.31c-0.37-0.22-0.71-0.54-1.02-0.96
		c-0.21-0.28-0.39-0.59-0.56-0.94c-0.15-0.31-0.28-0.65-0.4-1.01c-0.12-0.37-0.22-0.77-0.3-1.18c-0.09-0.49-0.15-1.01-0.18-1.55
		c-0.01-0.19-0.01-0.38-0.01-0.57c0-0.73,0.07-1.42,0.18-2.07c0.42-2.29,1.5-4.01,2.83-4.37C81.6,57.64,81.78,57.61,81.96,57.61z
		 M69.32,60.97c0.3-0.98,0.73-1.81,1.25-2.4c0.54-0.61,1.17-0.96,1.85-0.96c0.01,0,0.02,0,0.03,0c0.69,0.01,1.33,0.38,1.87,1.02
		c0.52,0.6,0.94,1.44,1.23,2.44c0.25,0.85,0.39,1.82,0.41,2.84c0,0.07,0,0.15,0,0.22c0,0.83-0.09,1.62-0.24,2.35
		c-0.17,0.82-0.43,1.55-0.76,2.17c-0.4,0.77-0.91,1.36-1.47,1.69c-0.13,0.07-0.26,0.14-0.39,0.18c-0.07,0.03-0.15,0.05-0.22,0.07
		c-0.05,0.01-0.11,0.02-0.17,0.03c-0.05,0.01-0.09,0.01-0.14,0.02c-0.04,0-0.09,0.01-0.13,0.01c-0.01,0-0.02,0-0.03,0
		c-0.03,0-0.07,0-0.1,0c-0.05,0-0.09-0.01-0.14-0.01c-0.05-0.01-0.11-0.02-0.16-0.03c-0.07-0.01-0.14-0.03-0.21-0.06
		c-0.12-0.04-0.24-0.09-0.35-0.15c-0.65-0.34-1.23-1.01-1.67-1.92c-0.3-0.62-0.54-1.34-0.7-2.14c-0.14-0.69-0.21-1.44-0.21-2.21
		c0-0.12,0-0.23,0.01-0.35C68.9,62.77,69.06,61.81,69.32,60.97z M59.96,67.91c-0.26-0.67-0.45-1.44-0.56-2.27
		c-0.06-0.48-0.1-0.99-0.1-1.5c0-0.32,0.01-0.63,0.04-0.94c0.07-0.9,0.24-1.74,0.49-2.49c0.3-0.9,0.73-1.66,1.22-2.2
		c0.53-0.57,1.14-0.9,1.79-0.9c0.22,0,0.43,0.04,0.64,0.11c1.25,0.42,2.26,2.02,2.69,4.16c0.14,0.7,0.22,1.46,0.22,2.26
		c0,0.16,0,0.32-0.01,0.48c-0.02,0.55-0.08,1.08-0.17,1.58c-0.08,0.42-0.17,0.82-0.29,1.2c-0.11,0.36-0.25,0.71-0.4,1.02
		c-0.17,0.35-0.36,0.68-0.56,0.96c-0.31,0.42-0.65,0.75-1.02,0.97c-0.35,0.21-0.71,0.32-1.1,0.32c-0.58,0-1.12-0.25-1.6-0.7
		C60.74,69.47,60.29,68.77,59.96,67.91z M88.52,81.79c-0.5,0.75-1.06,1.47-1.66,2.14c-0.6,0.68-1.25,1.31-1.93,1.9
		c-0.69,0.59-1.41,1.13-2.17,1.62c-0.76,0.49-1.55,0.93-2.38,1.31c-0.82,0.38-1.67,0.7-2.54,0.97c-0.86,0.26-1.75,0.47-2.66,0.62
		c-0.89,0.14-1.8,0.23-2.73,0.25c-0.15,0-0.3,0.01-0.45,0.01c-0.78,0-1.54-0.05-2.29-0.14c-0.92-0.11-1.83-0.27-2.71-0.5
		c-0.9-0.23-1.78-0.52-2.62-0.88c-0.86-0.36-1.69-0.77-2.48-1.24c-0.8-0.47-1.57-1-2.3-1.58c-0.73-0.58-1.42-1.22-2.06-1.9
		c-0.64-0.68-1.24-1.41-1.78-2.18c-0.54-0.77-1.02-1.58-1.45-2.42c-0.42-0.84-0.79-1.71-1.1-2.61c-0.3-0.89-0.54-1.81-0.72-2.76
		c-0.01-0.06-0.03-0.12-0.04-0.19l1.74-0.31c0.01,0.08,0.03,0.16,0.05,0.25c0.16,0.86,0.39,1.7,0.67,2.51
		c0.28,0.82,0.62,1.61,1.01,2.37c0.39,0.77,0.84,1.5,1.33,2.2c0.5,0.7,1.05,1.36,1.63,1.98c0.59,0.62,1.22,1.19,1.89,1.72
		c0.66,0.52,1.36,1,2.09,1.43c0.72,0.42,1.48,0.8,2.26,1.12c0.77,0.32,1.57,0.58,2.39,0.79c0.8,0.2,1.62,0.36,2.46,0.45
		c0.67,0.08,1.35,0.12,2.04,0.12c0.15,0,0.3-0.01,0.45-0.01c0.84-0.02,1.66-0.1,2.47-0.23c0.82-0.13,1.63-0.32,2.41-0.56
		c0.79-0.24,1.56-0.54,2.3-0.88c0.75-0.35,1.47-0.74,2.16-1.19c0.69-0.44,1.35-0.94,1.97-1.47c0.62-0.53,1.21-1.11,1.76-1.72
		c0.54-0.61,1.05-1.26,1.51-1.94c0.46-0.68,0.87-1.39,1.23-2.13c0.36-0.73,0.67-1.5,0.93-2.29c0.26-0.78,0.46-1.58,0.61-2.4
		c0-0.01,0-0.01,0-0.02l0.49,0.09l1.25,0.23c-0.16,0.89-0.38,1.76-0.66,2.6c-0.28,0.87-0.63,1.71-1.02,2.52
		C89.47,80.26,89.02,81.04,88.52,81.79z"/>
</g>
</svg>
